<mxfile host="app.diagrams.net" agent="Mozilla/5.0 (Windows NT 10.0; Win64; x64) AppleWebKit/537.36 (KHTML, like Gecko) Chrome/133.0.0.0 Safari/537.36 Edg/133.0.0.0" version="26.0.15" pages="2">
  <diagram name="Page-1" id="EAp133-VTe-JaXIpn0EU">
    <mxGraphModel dx="1767" dy="735" grid="1" gridSize="10" guides="1" tooltips="1" connect="1" arrows="1" fold="1" page="1" pageScale="1" pageWidth="1100" pageHeight="850" math="0" shadow="0">
      <root>
        <mxCell id="0" />
        <mxCell id="1" parent="0" />
        <mxCell id="N-zbVVW75FXXdC7FkWXK-1" value="&lt;font style=&quot;font-size: 13px;&quot;&gt;User&lt;/font&gt;" style="whiteSpace=wrap;html=1;align=center;fillColor=#d5e8d4;strokeColor=#82b366;gradientColor=#97d077;" vertex="1" parent="1">
          <mxGeometry x="120" y="161.25" width="100" height="40" as="geometry" />
        </mxCell>
        <mxCell id="N-zbVVW75FXXdC7FkWXK-2" value="" style="endArrow=none;html=1;rounded=0;exitX=0.076;exitY=-0.035;exitDx=0;exitDy=0;exitPerimeter=0;" edge="1" parent="1" source="N-zbVVW75FXXdC7FkWXK-1">
          <mxGeometry relative="1" as="geometry">
            <mxPoint x="380" y="361.25" as="sourcePoint" />
            <mxPoint x="110" y="141.25" as="targetPoint" />
          </mxGeometry>
        </mxCell>
        <mxCell id="N-zbVVW75FXXdC7FkWXK-3" value="User_ID" style="ellipse;whiteSpace=wrap;html=1;align=center;fillColor=#b0e3e6;strokeColor=#0e8088;" vertex="1" parent="1">
          <mxGeometry x="60" y="111.25" width="70" height="30" as="geometry" />
        </mxCell>
        <mxCell id="N-zbVVW75FXXdC7FkWXK-4" value="" style="endArrow=none;html=1;rounded=0;exitX=0.25;exitY=0;exitDx=0;exitDy=0;" edge="1" parent="1" source="N-zbVVW75FXXdC7FkWXK-1">
          <mxGeometry relative="1" as="geometry">
            <mxPoint x="138" y="170.25" as="sourcePoint" />
            <mxPoint x="145.02481404895002" y="161.15074380419992" as="targetPoint" />
          </mxGeometry>
        </mxCell>
        <mxCell id="N-zbVVW75FXXdC7FkWXK-5" value="Name" style="ellipse;whiteSpace=wrap;html=1;align=center;fillColor=#b0e3e6;strokeColor=#0e8088;" vertex="1" parent="1">
          <mxGeometry x="120" y="91.25" width="70" height="30" as="geometry" />
        </mxCell>
        <mxCell id="N-zbVVW75FXXdC7FkWXK-6" value="" style="endArrow=none;html=1;rounded=0;exitX=0.25;exitY=0;exitDx=0;exitDy=0;entryX=0.5;entryY=1;entryDx=0;entryDy=0;" edge="1" parent="1" source="N-zbVVW75FXXdC7FkWXK-1" target="N-zbVVW75FXXdC7FkWXK-5">
          <mxGeometry relative="1" as="geometry">
            <mxPoint x="380" y="361.25" as="sourcePoint" />
            <mxPoint x="540" y="361.25" as="targetPoint" />
          </mxGeometry>
        </mxCell>
        <mxCell id="N-zbVVW75FXXdC7FkWXK-8" value="Age" style="ellipse;whiteSpace=wrap;html=1;align=center;fillColor=#b0e3e6;strokeColor=#0e8088;" vertex="1" parent="1">
          <mxGeometry x="190" y="101.25" width="70" height="30" as="geometry" />
        </mxCell>
        <mxCell id="N-zbVVW75FXXdC7FkWXK-9" value="" style="endArrow=none;html=1;rounded=0;exitX=0.5;exitY=0;exitDx=0;exitDy=0;" edge="1" parent="1" source="N-zbVVW75FXXdC7FkWXK-1">
          <mxGeometry relative="1" as="geometry">
            <mxPoint x="380" y="361.25" as="sourcePoint" />
            <mxPoint x="210" y="131.25" as="targetPoint" />
          </mxGeometry>
        </mxCell>
        <mxCell id="N-zbVVW75FXXdC7FkWXK-10" value="Role" style="ellipse;whiteSpace=wrap;html=1;align=center;fillColor=#b0e3e6;strokeColor=#0e8088;" vertex="1" parent="1">
          <mxGeometry x="250" y="121.25" width="70" height="30" as="geometry" />
        </mxCell>
        <mxCell id="N-zbVVW75FXXdC7FkWXK-11" value="" style="endArrow=none;html=1;rounded=0;exitX=0.75;exitY=0;exitDx=0;exitDy=0;entryX=0.046;entryY=0.78;entryDx=0;entryDy=0;entryPerimeter=0;" edge="1" parent="1" source="N-zbVVW75FXXdC7FkWXK-1" target="N-zbVVW75FXXdC7FkWXK-10">
          <mxGeometry relative="1" as="geometry">
            <mxPoint x="380" y="361.25" as="sourcePoint" />
            <mxPoint x="540" y="361.25" as="targetPoint" />
          </mxGeometry>
        </mxCell>
        <mxCell id="N-zbVVW75FXXdC7FkWXK-12" value="" style="endArrow=none;html=1;rounded=0;" edge="1" parent="1">
          <mxGeometry relative="1" as="geometry">
            <mxPoint x="220" y="180.75" as="sourcePoint" />
            <mxPoint x="270" y="181.25" as="targetPoint" />
          </mxGeometry>
        </mxCell>
        <mxCell id="N-zbVVW75FXXdC7FkWXK-13" value="&lt;span style=&quot;font-size: 13px;&quot;&gt;may_be&lt;/span&gt;" style="shape=rhombus;perimeter=rhombusPerimeter;whiteSpace=wrap;html=1;align=center;fillColor=#fff2cc;strokeColor=#d6b656;gradientColor=#ffd966;" vertex="1" parent="1">
          <mxGeometry x="270" y="158.75" width="110" height="45" as="geometry" />
        </mxCell>
        <mxCell id="N-zbVVW75FXXdC7FkWXK-61" value="Health_status" style="ellipse;whiteSpace=wrap;html=1;align=center;fillColor=#b0e3e6;strokeColor=#0e8088;" vertex="1" parent="1">
          <mxGeometry x="225" y="318.75" width="110" height="30" as="geometry" />
        </mxCell>
        <mxCell id="N-zbVVW75FXXdC7FkWXK-62" value="Organ_needed" style="ellipse;whiteSpace=wrap;html=1;align=center;fillColor=#b0e3e6;strokeColor=#0e8088;" vertex="1" parent="1">
          <mxGeometry x="200" y="281.25" width="95" height="30" as="geometry" />
        </mxCell>
        <mxCell id="N-zbVVW75FXXdC7FkWXK-114" value="&lt;span style=&quot;font-size: 13px;&quot;&gt;Donor&lt;/span&gt;" style="whiteSpace=wrap;html=1;align=center;fillColor=#d5e8d4;gradientColor=#97d077;strokeColor=#82b366;" vertex="1" parent="1">
          <mxGeometry x="440" y="161.25" width="100" height="40" as="geometry" />
        </mxCell>
        <mxCell id="N-zbVVW75FXXdC7FkWXK-115" value="Donor_ID" style="ellipse;whiteSpace=wrap;html=1;align=center;fillColor=#b0e3e6;strokeColor=#0e8088;" vertex="1" parent="1">
          <mxGeometry x="350" y="120" width="70" height="30" as="geometry" />
        </mxCell>
        <mxCell id="N-zbVVW75FXXdC7FkWXK-116" value="Name" style="ellipse;whiteSpace=wrap;html=1;align=center;fillColor=#b0e3e6;strokeColor=#0e8088;" vertex="1" parent="1">
          <mxGeometry x="360" y="80" width="70" height="30" as="geometry" />
        </mxCell>
        <mxCell id="N-zbVVW75FXXdC7FkWXK-117" value="Medical_history" style="ellipse;whiteSpace=wrap;html=1;align=center;fillColor=#b0e3e6;strokeColor=#0e8088;" vertex="1" parent="1">
          <mxGeometry x="500" y="121.25" width="100" height="30" as="geometry" />
        </mxCell>
        <mxCell id="N-zbVVW75FXXdC7FkWXK-118" value="BloodType" style="ellipse;whiteSpace=wrap;html=1;align=center;fillColor=#b0e3e6;strokeColor=#0e8088;" vertex="1" parent="1">
          <mxGeometry x="470" y="90" width="70" height="30" as="geometry" />
        </mxCell>
        <mxCell id="N-zbVVW75FXXdC7FkWXK-119" value="OrganType" style="ellipse;whiteSpace=wrap;html=1;align=center;fillColor=#b0e3e6;strokeColor=#0e8088;" vertex="1" parent="1">
          <mxGeometry x="420" y="60" width="70" height="30" as="geometry" />
        </mxCell>
        <mxCell id="N-zbVVW75FXXdC7FkWXK-120" value="" style="endArrow=none;html=1;rounded=0;exitX=0;exitY=0;exitDx=0;exitDy=0;entryX=0.76;entryY=0.993;entryDx=0;entryDy=0;entryPerimeter=0;" edge="1" parent="1" source="N-zbVVW75FXXdC7FkWXK-114" target="N-zbVVW75FXXdC7FkWXK-115">
          <mxGeometry relative="1" as="geometry">
            <mxPoint x="70" y="360" as="sourcePoint" />
            <mxPoint x="230" y="360" as="targetPoint" />
          </mxGeometry>
        </mxCell>
        <mxCell id="N-zbVVW75FXXdC7FkWXK-121" value="" style="endArrow=none;html=1;rounded=0;exitX=0.172;exitY=-0.012;exitDx=0;exitDy=0;exitPerimeter=0;entryX=0.72;entryY=0.967;entryDx=0;entryDy=0;entryPerimeter=0;" edge="1" parent="1" source="N-zbVVW75FXXdC7FkWXK-114" target="N-zbVVW75FXXdC7FkWXK-116">
          <mxGeometry relative="1" as="geometry">
            <mxPoint x="70" y="360" as="sourcePoint" />
            <mxPoint x="230" y="360" as="targetPoint" />
          </mxGeometry>
        </mxCell>
        <mxCell id="N-zbVVW75FXXdC7FkWXK-122" value="" style="endArrow=none;html=1;rounded=0;exitX=0.25;exitY=0;exitDx=0;exitDy=0;entryX=0.377;entryY=1.073;entryDx=0;entryDy=0;entryPerimeter=0;" edge="1" parent="1" source="N-zbVVW75FXXdC7FkWXK-114">
          <mxGeometry relative="1" as="geometry">
            <mxPoint x="70" y="360" as="sourcePoint" />
            <mxPoint x="446.3900000000003" y="92.19000000000005" as="targetPoint" />
          </mxGeometry>
        </mxCell>
        <mxCell id="N-zbVVW75FXXdC7FkWXK-123" value="" style="endArrow=none;html=1;rounded=0;exitX=0.428;exitY=-0.052;exitDx=0;exitDy=0;entryX=0.286;entryY=1.033;entryDx=0;entryDy=0;entryPerimeter=0;exitPerimeter=0;" edge="1" parent="1" source="N-zbVVW75FXXdC7FkWXK-114" target="N-zbVVW75FXXdC7FkWXK-118">
          <mxGeometry relative="1" as="geometry">
            <mxPoint x="440" y="168" as="sourcePoint" />
            <mxPoint x="413" y="160" as="targetPoint" />
          </mxGeometry>
        </mxCell>
        <mxCell id="N-zbVVW75FXXdC7FkWXK-124" value="" style="endArrow=none;html=1;rounded=0;exitX=0.58;exitY=-0.052;exitDx=0;exitDy=0;entryX=0;entryY=1;entryDx=0;entryDy=0;exitPerimeter=0;" edge="1" parent="1" source="N-zbVVW75FXXdC7FkWXK-114" target="N-zbVVW75FXXdC7FkWXK-117">
          <mxGeometry relative="1" as="geometry">
            <mxPoint x="450" y="178" as="sourcePoint" />
            <mxPoint x="503.22000000000025" y="144.99" as="targetPoint" />
          </mxGeometry>
        </mxCell>
        <mxCell id="N-zbVVW75FXXdC7FkWXK-128" value="" style="endArrow=none;html=1;rounded=0;exitX=0;exitY=0.5;exitDx=0;exitDy=0;entryX=1;entryY=0.5;entryDx=0;entryDy=0;" edge="1" parent="1" source="N-zbVVW75FXXdC7FkWXK-114" target="N-zbVVW75FXXdC7FkWXK-13">
          <mxGeometry width="50" height="50" relative="1" as="geometry">
            <mxPoint x="310" y="421.25" as="sourcePoint" />
            <mxPoint x="360" y="371.25" as="targetPoint" />
          </mxGeometry>
        </mxCell>
        <mxCell id="N-zbVVW75FXXdC7FkWXK-129" value="&lt;span style=&quot;font-size: 13px;&quot;&gt;Recipient&lt;/span&gt;" style="whiteSpace=wrap;html=1;align=center;fillColor=#d5e8d4;gradientColor=#97d077;strokeColor=#82b366;" vertex="1" parent="1">
          <mxGeometry x="115" y="351.25" width="100" height="40" as="geometry" />
        </mxCell>
        <mxCell id="N-zbVVW75FXXdC7FkWXK-130" value="" style="endArrow=none;html=1;rounded=0;exitX=0.5;exitY=1;exitDx=0;exitDy=0;entryX=0.5;entryY=0;entryDx=0;entryDy=0;" edge="1" parent="1" source="N-zbVVW75FXXdC7FkWXK-1" target="N-zbVVW75FXXdC7FkWXK-131">
          <mxGeometry relative="1" as="geometry">
            <mxPoint x="230" y="190.75" as="sourcePoint" />
            <mxPoint x="280" y="191.25" as="targetPoint" />
          </mxGeometry>
        </mxCell>
        <mxCell id="N-zbVVW75FXXdC7FkWXK-131" value="&lt;span style=&quot;font-size: 13px;&quot;&gt;may_be&lt;/span&gt;" style="shape=rhombus;perimeter=rhombusPerimeter;whiteSpace=wrap;html=1;align=center;fillColor=#fff2cc;gradientColor=#ffd966;strokeColor=#d6b656;" vertex="1" parent="1">
          <mxGeometry x="115" y="251.25" width="110" height="45" as="geometry" />
        </mxCell>
        <mxCell id="N-zbVVW75FXXdC7FkWXK-132" value="" style="endArrow=none;html=1;rounded=0;exitX=0.5;exitY=1;exitDx=0;exitDy=0;entryX=0.5;entryY=0;entryDx=0;entryDy=0;" edge="1" parent="1" source="N-zbVVW75FXXdC7FkWXK-131">
          <mxGeometry relative="1" as="geometry">
            <mxPoint x="170" y="301.25" as="sourcePoint" />
            <mxPoint x="170" y="351.25" as="targetPoint" />
          </mxGeometry>
        </mxCell>
        <mxCell id="N-zbVVW75FXXdC7FkWXK-133" value="Rec_ID" style="ellipse;whiteSpace=wrap;html=1;align=center;fillColor=#b0e3e6;strokeColor=#0e8088;" vertex="1" parent="1">
          <mxGeometry x="40" y="318.75" width="70" height="30" as="geometry" />
        </mxCell>
        <mxCell id="N-zbVVW75FXXdC7FkWXK-135" value="BloodType" style="ellipse;whiteSpace=wrap;html=1;align=center;fillColor=#b0e3e6;strokeColor=#0e8088;" vertex="1" parent="1">
          <mxGeometry x="80" y="288.75" width="70" height="30" as="geometry" />
        </mxCell>
        <mxCell id="N-zbVVW75FXXdC7FkWXK-136" value="" style="endArrow=none;html=1;rounded=0;entryX=0.13;entryY=-0.037;entryDx=0;entryDy=0;entryPerimeter=0;" edge="1" parent="1" target="N-zbVVW75FXXdC7FkWXK-129">
          <mxGeometry width="50" height="50" relative="1" as="geometry">
            <mxPoint x="110" y="340" as="sourcePoint" />
            <mxPoint x="150" y="343.25" as="targetPoint" />
          </mxGeometry>
        </mxCell>
        <mxCell id="N-zbVVW75FXXdC7FkWXK-137" value="" style="endArrow=none;html=1;rounded=0;exitX=0.686;exitY=0.933;exitDx=0;exitDy=0;entryX=0.25;entryY=0;entryDx=0;entryDy=0;exitPerimeter=0;" edge="1" parent="1" source="N-zbVVW75FXXdC7FkWXK-135" target="N-zbVVW75FXXdC7FkWXK-129">
          <mxGeometry relative="1" as="geometry">
            <mxPoint x="615" y="373.25" as="sourcePoint" />
            <mxPoint x="500" y="433.25" as="targetPoint" />
          </mxGeometry>
        </mxCell>
        <mxCell id="N-zbVVW75FXXdC7FkWXK-138" value="" style="endArrow=none;html=1;rounded=0;exitX=0.295;exitY=1;exitDx=0;exitDy=0;entryX=0.75;entryY=0;entryDx=0;entryDy=0;exitPerimeter=0;" edge="1" parent="1" source="N-zbVVW75FXXdC7FkWXK-62" target="N-zbVVW75FXXdC7FkWXK-129">
          <mxGeometry relative="1" as="geometry">
            <mxPoint x="625" y="383.25" as="sourcePoint" />
            <mxPoint x="510" y="443.25" as="targetPoint" />
          </mxGeometry>
        </mxCell>
        <mxCell id="N-zbVVW75FXXdC7FkWXK-139" value="" style="endArrow=none;html=1;rounded=0;entryX=0.75;entryY=0;entryDx=0;entryDy=0;" edge="1" parent="1" source="N-zbVVW75FXXdC7FkWXK-61" target="N-zbVVW75FXXdC7FkWXK-129">
          <mxGeometry relative="1" as="geometry">
            <mxPoint x="635" y="393.25" as="sourcePoint" />
            <mxPoint x="520" y="453.25" as="targetPoint" />
          </mxGeometry>
        </mxCell>
        <mxCell id="N-zbVVW75FXXdC7FkWXK-141" value="&lt;span style=&quot;font-size: 13px;&quot;&gt;donates&lt;/span&gt;" style="shape=rhombus;perimeter=rhombusPerimeter;whiteSpace=wrap;html=1;align=center;fillColor=#fff2cc;strokeColor=#d6b656;gradientColor=#ffd966;" vertex="1" parent="1">
          <mxGeometry x="600" y="158.75" width="110" height="45" as="geometry" />
        </mxCell>
        <mxCell id="N-zbVVW75FXXdC7FkWXK-142" value="" style="endArrow=none;html=1;rounded=0;exitX=1;exitY=0.5;exitDx=0;exitDy=0;entryX=0;entryY=0.5;entryDx=0;entryDy=0;" edge="1" parent="1" source="N-zbVVW75FXXdC7FkWXK-114" target="N-zbVVW75FXXdC7FkWXK-141">
          <mxGeometry width="50" height="50" relative="1" as="geometry">
            <mxPoint x="450" y="191" as="sourcePoint" />
            <mxPoint x="390" y="191" as="targetPoint" />
          </mxGeometry>
        </mxCell>
        <mxCell id="N-zbVVW75FXXdC7FkWXK-143" value="&lt;span style=&quot;font-size: 13px;&quot;&gt;Organ&lt;/span&gt;" style="whiteSpace=wrap;html=1;align=center;fillColor=#d5e8d4;gradientColor=#97d077;strokeColor=#82b366;" vertex="1" parent="1">
          <mxGeometry x="780" y="161.25" width="100" height="40" as="geometry" />
        </mxCell>
        <mxCell id="N-zbVVW75FXXdC7FkWXK-144" value="" style="endArrow=none;html=1;rounded=0;entryX=0;entryY=0.5;entryDx=0;entryDy=0;exitX=1;exitY=0.5;exitDx=0;exitDy=0;" edge="1" parent="1" source="N-zbVVW75FXXdC7FkWXK-141" target="N-zbVVW75FXXdC7FkWXK-143">
          <mxGeometry width="50" height="50" relative="1" as="geometry">
            <mxPoint x="710" y="180" as="sourcePoint" />
            <mxPoint x="610" y="191" as="targetPoint" />
          </mxGeometry>
        </mxCell>
        <mxCell id="N-zbVVW75FXXdC7FkWXK-146" value="Organ_ID" style="ellipse;whiteSpace=wrap;html=1;align=center;fillColor=#b0e3e6;strokeColor=#0e8088;" vertex="1" parent="1">
          <mxGeometry x="720" y="101.25" width="70" height="30" as="geometry" />
        </mxCell>
        <mxCell id="N-zbVVW75FXXdC7FkWXK-147" value="Type" style="ellipse;whiteSpace=wrap;html=1;align=center;fillColor=#b0e3e6;strokeColor=#0e8088;" vertex="1" parent="1">
          <mxGeometry x="790" y="80" width="70" height="30" as="geometry" />
        </mxCell>
        <mxCell id="N-zbVVW75FXXdC7FkWXK-148" value="Condition" style="ellipse;whiteSpace=wrap;html=1;align=center;fillColor=#b0e3e6;strokeColor=#0e8088;" vertex="1" parent="1">
          <mxGeometry x="860" y="101.25" width="70" height="30" as="geometry" />
        </mxCell>
        <mxCell id="N-zbVVW75FXXdC7FkWXK-149" value="" style="endArrow=none;html=1;rounded=0;exitX=0.714;exitY=0.975;exitDx=0;exitDy=0;entryX=0.25;entryY=0;entryDx=0;entryDy=0;exitPerimeter=0;" edge="1" parent="1" source="N-zbVVW75FXXdC7FkWXK-146" target="N-zbVVW75FXXdC7FkWXK-143">
          <mxGeometry width="50" height="50" relative="1" as="geometry">
            <mxPoint x="550" y="191" as="sourcePoint" />
            <mxPoint x="610" y="191" as="targetPoint" />
          </mxGeometry>
        </mxCell>
        <mxCell id="N-zbVVW75FXXdC7FkWXK-150" value="" style="endArrow=none;html=1;rounded=0;exitX=0.5;exitY=1;exitDx=0;exitDy=0;entryX=0.5;entryY=0;entryDx=0;entryDy=0;" edge="1" parent="1" source="N-zbVVW75FXXdC7FkWXK-147" target="N-zbVVW75FXXdC7FkWXK-143">
          <mxGeometry width="50" height="50" relative="1" as="geometry">
            <mxPoint x="560" y="201" as="sourcePoint" />
            <mxPoint x="620" y="201" as="targetPoint" />
          </mxGeometry>
        </mxCell>
        <mxCell id="N-zbVVW75FXXdC7FkWXK-151" value="" style="endArrow=none;html=1;rounded=0;exitX=0.371;exitY=0.942;exitDx=0;exitDy=0;entryX=0.75;entryY=0;entryDx=0;entryDy=0;exitPerimeter=0;" edge="1" parent="1" source="N-zbVVW75FXXdC7FkWXK-148" target="N-zbVVW75FXXdC7FkWXK-143">
          <mxGeometry width="50" height="50" relative="1" as="geometry">
            <mxPoint x="570" y="211" as="sourcePoint" />
            <mxPoint x="630" y="211" as="targetPoint" />
          </mxGeometry>
        </mxCell>
        <mxCell id="N-zbVVW75FXXdC7FkWXK-152" value="&lt;span style=&quot;font-size: 13px;&quot;&gt;Organ Request&lt;/span&gt;" style="whiteSpace=wrap;html=1;align=center;fillColor=#d5e8d4;gradientColor=#97d077;strokeColor=#82b366;" vertex="1" parent="1">
          <mxGeometry x="440" y="353.75" width="100" height="40" as="geometry" />
        </mxCell>
        <mxCell id="N-zbVVW75FXXdC7FkWXK-153" value="&lt;span style=&quot;font-size: 13px;&quot;&gt;requests&lt;/span&gt;" style="shape=rhombus;perimeter=rhombusPerimeter;whiteSpace=wrap;html=1;align=center;fillColor=#fff2cc;gradientColor=#ffd966;strokeColor=#d6b656;" vertex="1" parent="1">
          <mxGeometry x="270" y="351.25" width="110" height="45" as="geometry" />
        </mxCell>
        <mxCell id="N-zbVVW75FXXdC7FkWXK-154" value="" style="endArrow=none;html=1;rounded=0;exitX=1;exitY=0.5;exitDx=0;exitDy=0;entryX=0;entryY=0.5;entryDx=0;entryDy=0;" edge="1" parent="1" source="N-zbVVW75FXXdC7FkWXK-153" target="N-zbVVW75FXXdC7FkWXK-152">
          <mxGeometry width="50" height="50" relative="1" as="geometry">
            <mxPoint x="550" y="191" as="sourcePoint" />
            <mxPoint x="610" y="191" as="targetPoint" />
          </mxGeometry>
        </mxCell>
        <mxCell id="N-zbVVW75FXXdC7FkWXK-155" value="" style="endArrow=none;html=1;rounded=0;exitX=1;exitY=0.5;exitDx=0;exitDy=0;entryX=0;entryY=0.5;entryDx=0;entryDy=0;" edge="1" parent="1" source="N-zbVVW75FXXdC7FkWXK-129" target="N-zbVVW75FXXdC7FkWXK-153">
          <mxGeometry width="50" height="50" relative="1" as="geometry">
            <mxPoint x="560" y="201" as="sourcePoint" />
            <mxPoint x="260" y="380" as="targetPoint" />
          </mxGeometry>
        </mxCell>
        <mxCell id="N-zbVVW75FXXdC7FkWXK-156" value="Request_ID" style="ellipse;whiteSpace=wrap;html=1;align=center;fillColor=#b0e3e6;strokeColor=#0e8088;" vertex="1" parent="1">
          <mxGeometry x="370" y="296.25" width="80" height="30" as="geometry" />
        </mxCell>
        <mxCell id="N-zbVVW75FXXdC7FkWXK-157" value="Status" style="ellipse;whiteSpace=wrap;html=1;align=center;fillColor=#b0e3e6;strokeColor=#0e8088;" vertex="1" parent="1">
          <mxGeometry x="550" y="318.75" width="70" height="30" as="geometry" />
        </mxCell>
        <mxCell id="N-zbVVW75FXXdC7FkWXK-158" value="Rec_ID" style="ellipse;whiteSpace=wrap;html=1;align=center;fillColor=#b0e3e6;strokeColor=#0e8088;" vertex="1" parent="1">
          <mxGeometry x="420" y="258.75" width="70" height="30" as="geometry" />
        </mxCell>
        <mxCell id="N-zbVVW75FXXdC7FkWXK-159" value="OrganType" style="ellipse;whiteSpace=wrap;html=1;align=center;fillColor=#b0e3e6;strokeColor=#0e8088;" vertex="1" parent="1">
          <mxGeometry x="480" y="281.25" width="80" height="30" as="geometry" />
        </mxCell>
        <mxCell id="N-zbVVW75FXXdC7FkWXK-160" value="" style="endArrow=none;html=1;rounded=0;exitX=1;exitY=1;exitDx=0;exitDy=0;entryX=0.25;entryY=0;entryDx=0;entryDy=0;" edge="1" parent="1" source="N-zbVVW75FXXdC7FkWXK-156" target="N-zbVVW75FXXdC7FkWXK-152">
          <mxGeometry width="50" height="50" relative="1" as="geometry">
            <mxPoint x="225" y="381" as="sourcePoint" />
            <mxPoint x="280" y="384" as="targetPoint" />
          </mxGeometry>
        </mxCell>
        <mxCell id="N-zbVVW75FXXdC7FkWXK-163" value="" style="endArrow=none;html=1;rounded=0;exitX=0.362;exitY=0.95;exitDx=0;exitDy=0;exitPerimeter=0;entryX=0.5;entryY=0;entryDx=0;entryDy=0;" edge="1" parent="1" source="N-zbVVW75FXXdC7FkWXK-159" target="N-zbVVW75FXXdC7FkWXK-152">
          <mxGeometry width="50" height="50" relative="1" as="geometry">
            <mxPoint x="255" y="411" as="sourcePoint" />
            <mxPoint x="490" y="350" as="targetPoint" />
          </mxGeometry>
        </mxCell>
        <mxCell id="N-zbVVW75FXXdC7FkWXK-164" value="" style="endArrow=none;html=1;rounded=0;exitX=0;exitY=0.5;exitDx=0;exitDy=0;entryX=0.64;entryY=-0.031;entryDx=0;entryDy=0;entryPerimeter=0;" edge="1" parent="1" source="N-zbVVW75FXXdC7FkWXK-157" target="N-zbVVW75FXXdC7FkWXK-152">
          <mxGeometry width="50" height="50" relative="1" as="geometry">
            <mxPoint x="265" y="421" as="sourcePoint" />
            <mxPoint x="320" y="424" as="targetPoint" />
          </mxGeometry>
        </mxCell>
        <mxCell id="N-zbVVW75FXXdC7FkWXK-165" value="" style="endArrow=none;html=1;rounded=0;exitX=0.643;exitY=1.025;exitDx=0;exitDy=0;exitPerimeter=0;" edge="1" parent="1" source="N-zbVVW75FXXdC7FkWXK-158" target="N-zbVVW75FXXdC7FkWXK-152">
          <mxGeometry width="50" height="50" relative="1" as="geometry">
            <mxPoint x="275" y="431" as="sourcePoint" />
            <mxPoint x="480" y="350" as="targetPoint" />
            <Array as="points" />
          </mxGeometry>
        </mxCell>
        <mxCell id="N-zbVVW75FXXdC7FkWXK-167" value="" style="endArrow=none;html=1;rounded=0;entryX=0.5;entryY=0;entryDx=0;entryDy=0;exitX=0;exitY=0.5;exitDx=0;exitDy=0;" edge="1" parent="1" source="N-zbVVW75FXXdC7FkWXK-168" target="N-zbVVW75FXXdC7FkWXK-152">
          <mxGeometry width="50" height="50" relative="1" as="geometry">
            <mxPoint x="580" y="300" as="sourcePoint" />
            <mxPoint x="350" y="454" as="targetPoint" />
          </mxGeometry>
        </mxCell>
        <mxCell id="N-zbVVW75FXXdC7FkWXK-168" value="&lt;span style=&quot;font-size: 13px;&quot;&gt;is_matched&lt;/span&gt;&lt;div&gt;&lt;span style=&quot;font-size: 13px;&quot;&gt;with&lt;/span&gt;&lt;/div&gt;" style="shape=rhombus;perimeter=rhombusPerimeter;whiteSpace=wrap;html=1;align=center;fillColor=#fff2cc;gradientColor=#ffd966;strokeColor=#d6b656;" vertex="1" parent="1">
          <mxGeometry x="600" y="258.75" width="140" height="46.25" as="geometry" />
        </mxCell>
        <mxCell id="N-zbVVW75FXXdC7FkWXK-171" value="" style="endArrow=none;html=1;rounded=0;exitX=0.5;exitY=1;exitDx=0;exitDy=0;entryX=1;entryY=0.5;entryDx=0;entryDy=0;" edge="1" parent="1" source="N-zbVVW75FXXdC7FkWXK-143" target="N-zbVVW75FXXdC7FkWXK-168">
          <mxGeometry width="50" height="50" relative="1" as="geometry">
            <mxPoint x="390" y="384" as="sourcePoint" />
            <mxPoint x="450" y="384" as="targetPoint" />
          </mxGeometry>
        </mxCell>
        <mxCell id="N-zbVVW75FXXdC7FkWXK-172" value="" style="endArrow=none;html=1;rounded=0;entryX=0.5;entryY=1;entryDx=0;entryDy=0;" edge="1" parent="1" target="N-zbVVW75FXXdC7FkWXK-143">
          <mxGeometry width="50" height="50" relative="1" as="geometry">
            <mxPoint x="830" y="270" as="sourcePoint" />
            <mxPoint x="790" y="191" as="targetPoint" />
          </mxGeometry>
        </mxCell>
        <mxCell id="N-zbVVW75FXXdC7FkWXK-173" value="&lt;span style=&quot;font-size: 13px;&quot;&gt;is_monitored&lt;/span&gt;" style="shape=rhombus;perimeter=rhombusPerimeter;whiteSpace=wrap;html=1;align=center;fillColor=#fff2cc;gradientColor=#ffd966;strokeColor=#d6b656;" vertex="1" parent="1">
          <mxGeometry x="775" y="251.25" width="110" height="45" as="geometry" />
        </mxCell>
        <mxCell id="N-zbVVW75FXXdC7FkWXK-174" value="" style="endArrow=none;html=1;rounded=0;entryX=0.5;entryY=1;entryDx=0;entryDy=0;" edge="1" parent="1">
          <mxGeometry width="50" height="50" relative="1" as="geometry">
            <mxPoint x="829.38" y="365.25" as="sourcePoint" />
            <mxPoint x="829.38" y="296.25" as="targetPoint" />
          </mxGeometry>
        </mxCell>
        <mxCell id="N-zbVVW75FXXdC7FkWXK-175" value="&lt;span style=&quot;font-size: 13px;&quot;&gt;Organ Tracking&lt;/span&gt;" style="whiteSpace=wrap;html=1;align=center;fillColor=#d5e8d4;gradientColor=#97d077;strokeColor=#82b366;" vertex="1" parent="1">
          <mxGeometry x="780" y="353.75" width="100" height="40" as="geometry" />
        </mxCell>
        <mxCell id="N-zbVVW75FXXdC7FkWXK-176" value="&lt;span style=&quot;font-size: 13px;&quot;&gt;Hospital&lt;/span&gt;" style="whiteSpace=wrap;html=1;align=center;fillColor=#d5e8d4;gradientColor=#97d077;strokeColor=#82b366;" vertex="1" parent="1">
          <mxGeometry x="780" y="550" width="100" height="40" as="geometry" />
        </mxCell>
        <mxCell id="N-zbVVW75FXXdC7FkWXK-177" value="" style="endArrow=none;html=1;rounded=0;entryX=0.5;entryY=1;entryDx=0;entryDy=0;" edge="1" parent="1">
          <mxGeometry width="50" height="50" relative="1" as="geometry">
            <mxPoint x="829.38" y="462.75" as="sourcePoint" />
            <mxPoint x="829.38" y="393.75" as="targetPoint" />
          </mxGeometry>
        </mxCell>
        <mxCell id="N-zbVVW75FXXdC7FkWXK-178" value="&lt;span style=&quot;font-size: 13px;&quot;&gt;manages&lt;/span&gt;" style="shape=rhombus;perimeter=rhombusPerimeter;whiteSpace=wrap;html=1;align=center;fillColor=#fff2cc;gradientColor=#ffd966;strokeColor=#d6b656;" vertex="1" parent="1">
          <mxGeometry x="775" y="450" width="110" height="45" as="geometry" />
        </mxCell>
        <mxCell id="N-zbVVW75FXXdC7FkWXK-179" value="" style="endArrow=none;html=1;rounded=0;entryX=0.5;entryY=1;entryDx=0;entryDy=0;exitX=0.5;exitY=0;exitDx=0;exitDy=0;" edge="1" parent="1" source="N-zbVVW75FXXdC7FkWXK-176">
          <mxGeometry width="50" height="50" relative="1" as="geometry">
            <mxPoint x="829" y="540" as="sourcePoint" />
            <mxPoint x="829.38" y="495" as="targetPoint" />
          </mxGeometry>
        </mxCell>
        <mxCell id="N-zbVVW75FXXdC7FkWXK-180" value="Hospital_ID" style="ellipse;whiteSpace=wrap;html=1;align=center;fillColor=#b0e3e6;strokeColor=#0e8088;" vertex="1" parent="1">
          <mxGeometry x="730" y="495" width="80" height="30" as="geometry" />
        </mxCell>
        <mxCell id="N-zbVVW75FXXdC7FkWXK-181" value="Name" style="ellipse;whiteSpace=wrap;html=1;align=center;fillColor=#b0e3e6;strokeColor=#0e8088;" vertex="1" parent="1">
          <mxGeometry x="840" y="490" width="80" height="30" as="geometry" />
        </mxCell>
        <mxCell id="N-zbVVW75FXXdC7FkWXK-182" value="Location" style="ellipse;whiteSpace=wrap;html=1;align=center;fillColor=#b0e3e6;strokeColor=#0e8088;" vertex="1" parent="1">
          <mxGeometry x="880" y="525" width="80" height="30" as="geometry" />
        </mxCell>
        <mxCell id="N-zbVVW75FXXdC7FkWXK-183" value="" style="endArrow=none;html=1;rounded=0;exitX=0.688;exitY=0.95;exitDx=0;exitDy=0;entryX=0.25;entryY=0;entryDx=0;entryDy=0;exitPerimeter=0;" edge="1" parent="1" source="N-zbVVW75FXXdC7FkWXK-180" target="N-zbVVW75FXXdC7FkWXK-176">
          <mxGeometry width="50" height="50" relative="1" as="geometry">
            <mxPoint x="390" y="384" as="sourcePoint" />
            <mxPoint x="450" y="384" as="targetPoint" />
          </mxGeometry>
        </mxCell>
        <mxCell id="N-zbVVW75FXXdC7FkWXK-184" value="" style="endArrow=none;html=1;rounded=0;exitX=0.263;exitY=0.917;exitDx=0;exitDy=0;entryX=0.5;entryY=0;entryDx=0;entryDy=0;exitPerimeter=0;" edge="1" parent="1" source="N-zbVVW75FXXdC7FkWXK-181" target="N-zbVVW75FXXdC7FkWXK-176">
          <mxGeometry width="50" height="50" relative="1" as="geometry">
            <mxPoint x="400" y="394" as="sourcePoint" />
            <mxPoint x="460" y="394" as="targetPoint" />
          </mxGeometry>
        </mxCell>
        <mxCell id="N-zbVVW75FXXdC7FkWXK-185" value="" style="endArrow=none;html=1;rounded=0;exitX=0;exitY=0.5;exitDx=0;exitDy=0;entryX=0.5;entryY=0;entryDx=0;entryDy=0;" edge="1" parent="1" source="N-zbVVW75FXXdC7FkWXK-182" target="N-zbVVW75FXXdC7FkWXK-176">
          <mxGeometry width="50" height="50" relative="1" as="geometry">
            <mxPoint x="410" y="404" as="sourcePoint" />
            <mxPoint x="470" y="404" as="targetPoint" />
          </mxGeometry>
        </mxCell>
        <mxCell id="N-zbVVW75FXXdC7FkWXK-186" value="" style="endArrow=none;html=1;rounded=0;exitX=1;exitY=0.5;exitDx=0;exitDy=0;entryX=0;entryY=0.5;entryDx=0;entryDy=0;" edge="1" parent="1" source="N-zbVVW75FXXdC7FkWXK-189" target="N-zbVVW75FXXdC7FkWXK-188">
          <mxGeometry width="50" height="50" relative="1" as="geometry">
            <mxPoint x="420" y="414" as="sourcePoint" />
            <mxPoint x="480" y="414" as="targetPoint" />
          </mxGeometry>
        </mxCell>
        <mxCell id="N-zbVVW75FXXdC7FkWXK-187" value="" style="endArrow=none;html=1;rounded=0;exitX=1;exitY=0.5;exitDx=0;exitDy=0;entryX=0;entryY=0.5;entryDx=0;entryDy=0;" edge="1" parent="1" source="N-zbVVW75FXXdC7FkWXK-188" target="N-zbVVW75FXXdC7FkWXK-176">
          <mxGeometry width="50" height="50" relative="1" as="geometry">
            <mxPoint x="430" y="424" as="sourcePoint" />
            <mxPoint x="490" y="424" as="targetPoint" />
          </mxGeometry>
        </mxCell>
        <mxCell id="N-zbVVW75FXXdC7FkWXK-188" value="&lt;span style=&quot;font-size: 13px;&quot;&gt;conducts&lt;/span&gt;" style="shape=rhombus;perimeter=rhombusPerimeter;whiteSpace=wrap;html=1;align=center;fillColor=#fff2cc;gradientColor=#ffd966;strokeColor=#d6b656;" vertex="1" parent="1">
          <mxGeometry x="600" y="547.5" width="110" height="45" as="geometry" />
        </mxCell>
        <mxCell id="N-zbVVW75FXXdC7FkWXK-189" value="&lt;span style=&quot;font-size: 13px;&quot;&gt;Transplant&lt;/span&gt;" style="whiteSpace=wrap;html=1;align=center;fillColor=#d5e8d4;gradientColor=#97d077;strokeColor=#82b366;" vertex="1" parent="1">
          <mxGeometry x="440" y="550" width="100" height="40" as="geometry" />
        </mxCell>
        <mxCell id="N-zbVVW75FXXdC7FkWXK-190" value="&lt;span style=&quot;font-size: 13px;&quot;&gt;Report Analysis&lt;/span&gt;" style="whiteSpace=wrap;html=1;align=center;fillColor=#d5e8d4;gradientColor=#97d077;strokeColor=#82b366;" vertex="1" parent="1">
          <mxGeometry x="110" y="550" width="100" height="40" as="geometry" />
        </mxCell>
        <mxCell id="N-zbVVW75FXXdC7FkWXK-191" value="&lt;span style=&quot;font-size: 13px;&quot;&gt;results_in&lt;/span&gt;" style="shape=rhombus;perimeter=rhombusPerimeter;whiteSpace=wrap;html=1;align=center;fillColor=#fff2cc;gradientColor=#ffd966;strokeColor=#d6b656;" vertex="1" parent="1">
          <mxGeometry x="270" y="547.5" width="110" height="45" as="geometry" />
        </mxCell>
        <mxCell id="N-zbVVW75FXXdC7FkWXK-192" value="" style="endArrow=none;html=1;rounded=0;exitX=1;exitY=0.5;exitDx=0;exitDy=0;entryX=0;entryY=0.5;entryDx=0;entryDy=0;" edge="1" parent="1" source="N-zbVVW75FXXdC7FkWXK-191" target="N-zbVVW75FXXdC7FkWXK-189">
          <mxGeometry width="50" height="50" relative="1" as="geometry">
            <mxPoint x="390" y="384" as="sourcePoint" />
            <mxPoint x="450" y="384" as="targetPoint" />
          </mxGeometry>
        </mxCell>
        <mxCell id="N-zbVVW75FXXdC7FkWXK-193" value="" style="endArrow=none;html=1;rounded=0;exitX=0;exitY=0.5;exitDx=0;exitDy=0;entryX=1;entryY=0.5;entryDx=0;entryDy=0;" edge="1" parent="1" source="N-zbVVW75FXXdC7FkWXK-191" target="N-zbVVW75FXXdC7FkWXK-190">
          <mxGeometry width="50" height="50" relative="1" as="geometry">
            <mxPoint x="400" y="394" as="sourcePoint" />
            <mxPoint x="460" y="394" as="targetPoint" />
          </mxGeometry>
        </mxCell>
        <mxCell id="N-zbVVW75FXXdC7FkWXK-194" value="Tracking_ID" style="ellipse;whiteSpace=wrap;html=1;align=center;fillColor=#b0e3e6;strokeColor=#0e8088;" vertex="1" parent="1">
          <mxGeometry x="720" y="296.25" width="90" height="30" as="geometry" />
        </mxCell>
        <mxCell id="N-zbVVW75FXXdC7FkWXK-195" value="Current_location" style="ellipse;whiteSpace=wrap;html=1;align=center;fillColor=#b0e3e6;strokeColor=#0e8088;" vertex="1" parent="1">
          <mxGeometry x="845" y="288.75" width="100" height="30" as="geometry" />
        </mxCell>
        <mxCell id="N-zbVVW75FXXdC7FkWXK-196" value="Status" style="ellipse;whiteSpace=wrap;html=1;align=center;fillColor=#b0e3e6;strokeColor=#0e8088;" vertex="1" parent="1">
          <mxGeometry x="900" y="326.25" width="80" height="30" as="geometry" />
        </mxCell>
        <mxCell id="N-zbVVW75FXXdC7FkWXK-197" value="" style="endArrow=none;html=1;rounded=0;exitX=0.71;exitY=0.977;exitDx=0;exitDy=0;entryX=0.347;entryY=0.01;entryDx=0;entryDy=0;entryPerimeter=0;exitPerimeter=0;" edge="1" parent="1" source="N-zbVVW75FXXdC7FkWXK-194" target="N-zbVVW75FXXdC7FkWXK-175">
          <mxGeometry width="50" height="50" relative="1" as="geometry">
            <mxPoint x="550" y="580" as="sourcePoint" />
            <mxPoint x="610" y="580" as="targetPoint" />
          </mxGeometry>
        </mxCell>
        <mxCell id="N-zbVVW75FXXdC7FkWXK-198" value="" style="endArrow=none;html=1;rounded=0;exitX=0.394;exitY=1.037;exitDx=0;exitDy=0;exitPerimeter=0;entryX=0.5;entryY=0;entryDx=0;entryDy=0;" edge="1" parent="1" source="N-zbVVW75FXXdC7FkWXK-195" target="N-zbVVW75FXXdC7FkWXK-175">
          <mxGeometry width="50" height="50" relative="1" as="geometry">
            <mxPoint x="560" y="590" as="sourcePoint" />
            <mxPoint x="844" y="351" as="targetPoint" />
          </mxGeometry>
        </mxCell>
        <mxCell id="N-zbVVW75FXXdC7FkWXK-199" value="" style="endArrow=none;html=1;rounded=0;entryX=0.75;entryY=0;entryDx=0;entryDy=0;exitX=0;exitY=0.5;exitDx=0;exitDy=0;" edge="1" parent="1" source="N-zbVVW75FXXdC7FkWXK-196" target="N-zbVVW75FXXdC7FkWXK-175">
          <mxGeometry width="50" height="50" relative="1" as="geometry">
            <mxPoint x="900" y="330" as="sourcePoint" />
            <mxPoint x="630" y="600" as="targetPoint" />
          </mxGeometry>
        </mxCell>
        <mxCell id="N-zbVVW75FXXdC7FkWXK-200" value="" style="endArrow=none;html=1;rounded=0;entryX=0.5;entryY=1;entryDx=0;entryDy=0;exitX=0.5;exitY=0;exitDx=0;exitDy=0;" edge="1" parent="1" source="N-zbVVW75FXXdC7FkWXK-189" target="N-zbVVW75FXXdC7FkWXK-201">
          <mxGeometry width="50" height="50" relative="1" as="geometry">
            <mxPoint x="465" y="550" as="sourcePoint" />
            <mxPoint x="640" y="610" as="targetPoint" />
          </mxGeometry>
        </mxCell>
        <mxCell id="N-zbVVW75FXXdC7FkWXK-201" value="Transplant_ID" style="ellipse;whiteSpace=wrap;html=1;align=center;fillColor=#b0e3e6;strokeColor=#0e8088;" vertex="1" parent="1">
          <mxGeometry x="370" y="470" width="100" height="30" as="geometry" />
        </mxCell>
        <mxCell id="N-zbVVW75FXXdC7FkWXK-202" value="Date" style="ellipse;whiteSpace=wrap;html=1;align=center;fillColor=#b0e3e6;strokeColor=#0e8088;" vertex="1" parent="1">
          <mxGeometry x="465" y="450" width="80" height="30" as="geometry" />
        </mxCell>
        <mxCell id="N-zbVVW75FXXdC7FkWXK-203" value="Success_rate" style="ellipse;whiteSpace=wrap;html=1;align=center;fillColor=#b0e3e6;strokeColor=#0e8088;" vertex="1" parent="1">
          <mxGeometry x="530" y="490" width="80" height="30" as="geometry" />
        </mxCell>
        <mxCell id="N-zbVVW75FXXdC7FkWXK-204" value="" style="endArrow=none;html=1;rounded=0;exitX=0.5;exitY=0;exitDx=0;exitDy=0;entryX=0.5;entryY=1;entryDx=0;entryDy=0;" edge="1" parent="1" source="N-zbVVW75FXXdC7FkWXK-189" target="N-zbVVW75FXXdC7FkWXK-202">
          <mxGeometry width="50" height="50" relative="1" as="geometry">
            <mxPoint x="475" y="560" as="sourcePoint" />
            <mxPoint x="430" y="510" as="targetPoint" />
          </mxGeometry>
        </mxCell>
        <mxCell id="N-zbVVW75FXXdC7FkWXK-205" value="" style="endArrow=none;html=1;rounded=0;exitX=0.639;exitY=-0.011;exitDx=0;exitDy=0;entryX=0;entryY=1;entryDx=0;entryDy=0;exitPerimeter=0;" edge="1" parent="1" source="N-zbVVW75FXXdC7FkWXK-189" target="N-zbVVW75FXXdC7FkWXK-203">
          <mxGeometry width="50" height="50" relative="1" as="geometry">
            <mxPoint x="485" y="570" as="sourcePoint" />
            <mxPoint x="440" y="520" as="targetPoint" />
          </mxGeometry>
        </mxCell>
        <mxCell id="N-zbVVW75FXXdC7FkWXK-206" value="&lt;span style=&quot;font-size: 13px;&quot;&gt;performed_on&lt;/span&gt;" style="shape=rhombus;perimeter=rhombusPerimeter;whiteSpace=wrap;html=1;align=center;fillColor=#fff2cc;gradientColor=#ffd966;strokeColor=#d6b656;" vertex="1" parent="1">
          <mxGeometry x="240" y="462.5" width="110" height="45" as="geometry" />
        </mxCell>
        <mxCell id="N-zbVVW75FXXdC7FkWXK-207" value="" style="endArrow=none;html=1;rounded=0;entryX=1;entryY=0.5;entryDx=0;entryDy=0;exitX=0.35;exitY=-0.013;exitDx=0;exitDy=0;exitPerimeter=0;" edge="1" parent="1" source="N-zbVVW75FXXdC7FkWXK-189" target="N-zbVVW75FXXdC7FkWXK-206">
          <mxGeometry width="50" height="50" relative="1" as="geometry">
            <mxPoint x="490" y="547" as="sourcePoint" />
            <mxPoint x="220" y="580" as="targetPoint" />
          </mxGeometry>
        </mxCell>
        <mxCell id="N-zbVVW75FXXdC7FkWXK-208" value="" style="endArrow=none;html=1;rounded=0;exitX=0.5;exitY=1;exitDx=0;exitDy=0;entryX=0;entryY=0.5;entryDx=0;entryDy=0;" edge="1" parent="1" source="N-zbVVW75FXXdC7FkWXK-129" target="N-zbVVW75FXXdC7FkWXK-206">
          <mxGeometry width="50" height="50" relative="1" as="geometry">
            <mxPoint x="290" y="590" as="sourcePoint" />
            <mxPoint x="230" y="590" as="targetPoint" />
          </mxGeometry>
        </mxCell>
        <mxCell id="N-zbVVW75FXXdC7FkWXK-209" value="Report_ID" style="ellipse;whiteSpace=wrap;html=1;align=center;fillColor=#b0e3e6;strokeColor=#0e8088;" vertex="1" parent="1">
          <mxGeometry x="30" y="495" width="100" height="30" as="geometry" />
        </mxCell>
        <mxCell id="N-zbVVW75FXXdC7FkWXK-210" value="findings" style="ellipse;whiteSpace=wrap;html=1;align=center;fillColor=#b0e3e6;strokeColor=#0e8088;" vertex="1" parent="1">
          <mxGeometry x="90" y="455" width="100" height="30" as="geometry" />
        </mxCell>
        <mxCell id="N-zbVVW75FXXdC7FkWXK-211" value="Recommendations" style="ellipse;whiteSpace=wrap;html=1;align=center;fillColor=#b0e3e6;strokeColor=#0e8088;" vertex="1" parent="1">
          <mxGeometry x="170" y="500" width="110" height="30" as="geometry" />
        </mxCell>
        <mxCell id="N-zbVVW75FXXdC7FkWXK-212" value="" style="endArrow=none;html=1;rounded=0;exitX=0.25;exitY=0;exitDx=0;exitDy=0;entryX=0.654;entryY=0.882;entryDx=0;entryDy=0;entryPerimeter=0;" edge="1" parent="1" source="N-zbVVW75FXXdC7FkWXK-190" target="N-zbVVW75FXXdC7FkWXK-209">
          <mxGeometry width="50" height="50" relative="1" as="geometry">
            <mxPoint x="390" y="580" as="sourcePoint" />
            <mxPoint x="450" y="580" as="targetPoint" />
          </mxGeometry>
        </mxCell>
        <mxCell id="N-zbVVW75FXXdC7FkWXK-213" value="" style="endArrow=none;html=1;rounded=0;exitX=0.5;exitY=0;exitDx=0;exitDy=0;entryX=0.5;entryY=1;entryDx=0;entryDy=0;" edge="1" parent="1" source="N-zbVVW75FXXdC7FkWXK-190" target="N-zbVVW75FXXdC7FkWXK-210">
          <mxGeometry width="50" height="50" relative="1" as="geometry">
            <mxPoint x="400" y="590" as="sourcePoint" />
            <mxPoint x="460" y="590" as="targetPoint" />
          </mxGeometry>
        </mxCell>
        <mxCell id="N-zbVVW75FXXdC7FkWXK-214" value="" style="endArrow=none;html=1;rounded=0;exitX=0.5;exitY=0;exitDx=0;exitDy=0;entryX=0.262;entryY=0.921;entryDx=0;entryDy=0;entryPerimeter=0;" edge="1" parent="1" source="N-zbVVW75FXXdC7FkWXK-190" target="N-zbVVW75FXXdC7FkWXK-211">
          <mxGeometry width="50" height="50" relative="1" as="geometry">
            <mxPoint x="410" y="600" as="sourcePoint" />
            <mxPoint x="470" y="600" as="targetPoint" />
          </mxGeometry>
        </mxCell>
      </root>
    </mxGraphModel>
  </diagram>
  <diagram id="XKPp4riCCfZ0RD3JgPAX" name="Page-2">
    <mxGraphModel grid="1" page="1" gridSize="10" guides="1" tooltips="1" connect="1" arrows="1" fold="1" pageScale="1" pageWidth="1100" pageHeight="850" math="0" shadow="0">
      <root>
        <mxCell id="0" />
        <mxCell id="1" parent="0" />
      </root>
    </mxGraphModel>
  </diagram>
</mxfile>
